<svg width="120" height="120" viewBox="0 0 120 120" fill="none" xmlns="http://www.w3.org/2000/svg">
<g clip-path="url(#clip0_505_32)">
<g clip-path="url(#clip1_505_32)">
<rect x="31.3184" y="115.536" width="4.46364" height="4.46364" fill="#0F0F0F"/>
<rect x="53.6367" y="115.536" width="4.46364" height="4.46364" fill="#0F0F0F"/>
<rect x="53.6367" y="111.073" width="4.46364" height="4.46364" fill="#0F0F0F"/>
<rect x="31.3184" y="111.073" width="4.46364" height="4.46364" fill="#0F0F0F"/>
<rect x="53.6367" y="106.609" width="4.46364" height="4.46364" fill="#0F0F0F"/>
<rect x="53.6367" y="102.145" width="4.46364" height="4.46364" fill="#0F0F0F"/>
<rect x="58.1006" y="102.145" width="4.46364" height="4.46364" fill="#0F0F0F"/>
<rect x="62.5635" y="102.145" width="4.46364" height="4.46364" fill="#0F0F0F"/>
<rect x="67.0273" y="102.145" width="4.46364" height="4.46364" fill="#0F0F0F"/>
<rect x="71.4912" y="102.145" width="4.46364" height="4.46364" fill="#0F0F0F"/>
<rect x="75.9541" y="102.145" width="4.46364" height="4.46364" fill="#0F0F0F"/>
<rect x="80.4189" y="102.145" width="4.46364" height="4.46364" fill="#0F0F0F"/>
<rect x="84.8818" y="102.145" width="4.46364" height="4.46364" fill="#0F0F0F"/>
<rect x="98.2729" y="88.7545" width="4.46364" height="4.46364" fill="#0F0F0F"/>
<rect x="98.2729" y="84.2908" width="4.46364" height="4.46364" fill="#0F0F0F"/>
<rect x="98.2729" y="79.8273" width="4.46364" height="4.46364" fill="#0F0F0F"/>
<rect x="89.3457" y="102.145" width="4.46364" height="4.46364" fill="#0F0F0F"/>
<rect x="35.7822" y="115.536" width="4.46364" height="4.46364" fill="#CDD1DC"/>
<rect x="35.7822" y="106.609" width="4.46364" height="4.46364" fill="#CDD1DC"/>
<rect x="35.7822" y="102.145" width="17.8545" height="4.46364" fill="#CDD1DC"/>
<rect x="40.2461" y="93.2181" width="8.92727" height="4.46364" fill="#CDD1DC"/>
<rect x="40.2461" y="79.8273" width="4.46364" height="4.46364" fill="#CDD1DC"/>
<rect x="44.709" y="84.2908" width="4.46364" height="4.46364" fill="#CDD1DC"/>
<rect x="58.1006" y="88.7545" width="4.46364" height="4.46364" fill="#CDD1DC"/>
<rect x="53.6367" y="88.7545" width="44.6364" height="4.46364" fill="#CDD1DC"/>
<rect x="40.2461" y="106.609" width="13.3909" height="4.46364" fill="#E3E8EE"/>
<rect x="40.2461" y="97.6818" width="8.92727" height="4.46364" fill="#E3E8EE"/>
<rect x="40.2461" y="84.2908" width="4.46364" height="4.46364" fill="#E3E8EE"/>
<rect x="40.2461" y="88.7545" width="13.3909" height="4.46364" fill="#E3E8EE"/>
<rect x="49.1729" y="93.2181" width="49.1" height="4.46364" fill="#E3E8EE"/>
<rect x="44.709" y="75.3636" width="53.5636" height="4.46364" fill="#E3E8EE"/>
<rect x="44.709" y="70.9" width="53.5636" height="4.46364" fill="#E3E8EE"/>
<rect x="22.3906" y="66.4363" width="75.8818" height="4.46364" fill="#E3E8EE"/>
<rect x="22.3906" y="61.9727" width="80.3455" height="4.46364" fill="#E3E8EE"/>
<rect x="22.3906" y="57.509" width="80.3455" height="4.46364" fill="#E3E8EE"/>
<rect x="22.3906" y="53.0455" width="80.3455" height="4.46364" fill="#E3E8EE"/>
<rect x="22.3906" y="48.5818" width="80.3455" height="4.46364" fill="#E3E8EE"/>
<rect x="22.3906" y="44.1182" width="80.3455" height="4.46364" fill="#E3E8EE"/>
<rect x="22.3906" y="39.6545" width="80.3455" height="4.46364" fill="#E3E8EE"/>
<rect x="22.3906" y="35.1909" width="80.3455" height="4.46364" fill="#E3E8EE"/>
<rect x="22.3906" y="30.7273" width="80.3455" height="4.46364" fill="#E3E8EE"/>
<rect x="22.3906" y="26.2637" width="80.3455" height="4.46364" fill="#E3E8EE"/>
<rect x="22.3906" y="21.8" width="80.3455" height="4.46364" fill="#E3E8EE"/>
<rect x="22.3906" y="17.3364" width="75.8818" height="4.46364" fill="#E3E8EE"/>
<rect x="22.3906" y="12.8727" width="75.8818" height="4.46364" fill="#E3E8EE"/>
<rect x="26.8555" y="8.40906" width="66.9545" height="4.46364" fill="#E3E8EE"/>
<rect x="49.1729" y="97.6818" width="44.6364" height="4.46364" fill="#E3E8EE"/>
<rect x="40.2461" y="115.536" width="13.3909" height="4.46364" fill="#E3E8EE"/>
<rect x="35.7822" y="97.6818" width="4.46364" height="4.46364" fill="#CDD1DC"/>
<rect x="35.7822" y="93.2181" width="4.46364" height="4.46364" fill="#CDD1DC"/>
<rect x="35.7822" y="88.7545" width="4.46364" height="4.46364" fill="#CDD1DC"/>
<rect x="35.7822" y="84.2908" width="4.46364" height="4.46364" fill="#CDD1DC"/>
<rect x="35.7822" y="79.8273" width="4.46364" height="4.46364" fill="#CDD1DC"/>
<rect x="35.7822" y="75.3636" width="4.46364" height="4.46364" fill="#CDD1DC"/>
<rect x="44.709" y="75.3636" width="4.46364" height="4.46364" fill="#CDD1DC"/>
<rect x="44.709" y="70.9" width="4.46364" height="4.46364" fill="#CDD1DC"/>
<rect x="22.3906" y="66.4363" width="26.7818" height="4.46364" fill="#CDD1DC"/>
<rect x="22.3906" y="61.9727" width="17.8545" height="4.46364" fill="#CDD1DC"/>
<rect x="26.8555" y="8.40906" width="66.9545" height="4.46364" fill="#CDD1DC"/>
<rect x="22.3906" y="12.8727" width="13.3909" height="49.1" fill="#CDD1DC"/>
<rect x="35.7822" y="111.073" width="17.8545" height="4.46364" fill="#CDD1DC"/>
<rect x="31.3184" y="106.609" width="4.46364" height="4.46364" fill="#0F0F0F"/>
<rect x="31.3184" y="102.145" width="4.46364" height="4.46364" fill="#0F0F0F"/>
<rect x="31.3184" y="97.6818" width="4.46364" height="4.46364" fill="#0F0F0F"/>
<rect x="31.3184" y="93.2181" width="4.46364" height="4.46364" fill="#0F0F0F"/>
<rect x="31.3184" y="88.7545" width="4.46364" height="4.46364" fill="#0F0F0F"/>
<rect x="31.3184" y="84.2908" width="4.46364" height="4.46364" fill="#0F0F0F"/>
<rect x="31.3184" y="79.8273" width="4.46364" height="4.46364" fill="#0F0F0F"/>
<rect x="31.3184" y="75.3636" width="4.46364" height="4.46364" fill="#0F0F0F"/>
<rect x="31.3184" y="70.9" width="4.46364" height="4.46364" fill="#0F0F0F"/>
<rect x="26.8555" y="70.9" width="4.46364" height="4.46364" fill="#0F0F0F"/>
<rect x="22.3906" y="70.9" width="4.46364" height="4.46364" fill="#0F0F0F"/>
<rect x="17.9277" y="66.4363" width="4.46364" height="4.46364" fill="#0F0F0F"/>
<rect x="17.9277" y="61.9727" width="4.46364" height="4.46364" fill="#0F0F0F"/>
<rect x="17.9277" y="57.509" width="4.46364" height="4.46364" fill="#0F0F0F"/>
<rect x="17.9277" y="53.0455" width="4.46364" height="4.46364" fill="#0F0F0F"/>
<rect x="17.9277" y="48.5818" width="4.46364" height="4.46364" fill="#0F0F0F"/>
<rect x="17.9277" y="44.1182" width="4.46364" height="4.46364" fill="#0F0F0F"/>
<rect x="17.9277" y="39.6545" width="4.46364" height="4.46364" fill="#0F0F0F"/>
<rect x="17.9277" y="35.1909" width="4.46364" height="4.46364" fill="#0F0F0F"/>
<rect x="17.9277" y="30.7273" width="4.46364" height="4.46364" fill="#0F0F0F"/>
<rect x="17.9277" y="26.2636" width="4.46364" height="4.46364" fill="#0F0F0F"/>
<rect x="17.9277" y="21.8" width="4.46364" height="4.46364" fill="#0F0F0F"/>
<rect x="17.9277" y="17.3364" width="4.46364" height="4.46364" fill="#0F0F0F"/>
<rect x="17.9277" y="12.8727" width="4.46364" height="4.46364" fill="#0F0F0F"/>
<rect x="22.3906" y="8.40906" width="4.46364" height="4.46364" fill="#0F0F0F"/>
<rect x="26.8555" y="3.94537" width="4.46364" height="4.46364" fill="#0F0F0F"/>
<rect x="31.3184" y="3.94537" width="4.46364" height="4.46364" fill="#0F0F0F"/>
<rect x="35.7822" y="3.94537" width="4.46364" height="4.46364" fill="#0F0F0F"/>
<rect x="40.2461" y="3.94537" width="4.46364" height="4.46364" fill="#0F0F0F"/>
<rect x="44.709" y="3.94537" width="4.46364" height="4.46364" fill="#0F0F0F"/>
<rect x="49.1729" y="3.94537" width="4.46364" height="4.46364" fill="#0F0F0F"/>
<rect x="53.6367" y="3.94537" width="4.46364" height="4.46364" fill="#0F0F0F"/>
<rect x="58.1006" y="3.94537" width="4.46364" height="4.46364" fill="#0F0F0F"/>
<rect x="62.5635" y="3.94537" width="4.46364" height="4.46364" fill="#0F0F0F"/>
<rect x="67.0273" y="66.4363" width="4.46364" height="4.46364" fill="#CDD1DC"/>
<rect x="80.4189" y="66.4363" width="4.46364" height="4.46364" fill="#CDD1DC"/>
<rect x="67.0273" y="3.94537" width="4.46364" height="4.46364" fill="#0F0F0F"/>
<rect x="71.4912" y="3.94537" width="4.46364" height="4.46364" fill="#0F0F0F"/>
<rect x="75.9541" y="3.94537" width="4.46364" height="4.46364" fill="#0F0F0F"/>
<rect x="80.4189" y="3.94537" width="4.46364" height="4.46364" fill="#0F0F0F"/>
<rect x="84.8818" y="3.94537" width="4.46364" height="4.46364" fill="#0F0F0F"/>
<rect x="89.3457" y="3.94537" width="4.46364" height="4.46364" fill="#0F0F0F"/>
<rect x="93.8096" y="8.40906" width="4.46364" height="4.46364" fill="#0F0F0F"/>
<rect x="98.2729" y="12.8727" width="4.46364" height="4.46364" fill="#0F0F0F"/>
<rect x="98.2729" y="17.3364" width="4.46364" height="4.46364" fill="#0F0F0F"/>
<rect x="102.737" y="21.8" width="4.46364" height="4.46364" fill="#0F0F0F"/>
<rect x="102.737" y="26.2636" width="4.46364" height="4.46364" fill="#0F0F0F"/>
<rect x="102.737" y="30.7273" width="4.46364" height="4.46364" fill="#0F0F0F"/>
<rect x="102.737" y="35.1909" width="4.46364" height="4.46364" fill="#0F0F0F"/>
<rect x="102.737" y="39.6545" width="4.46364" height="4.46364" fill="#0F0F0F"/>
<rect x="102.737" y="44.1182" width="4.46364" height="4.46364" fill="#0F0F0F"/>
<rect x="102.737" y="48.5818" width="4.46364" height="4.46364" fill="#0F0F0F"/>
<rect x="102.737" y="53.0455" width="4.46364" height="4.46364" fill="#0F0F0F"/>
<rect x="102.737" y="57.509" width="4.46364" height="4.46364" fill="#0F0F0F"/>
<rect x="98.2729" y="75.3636" width="4.46364" height="4.46364" fill="#0F0F0F"/>
<rect x="35.7822" y="70.9" width="4.46364" height="4.46364" fill="#0F0F0F"/>
<rect x="40.2461" y="70.9" width="4.46364" height="4.46364" fill="#0F0F0F"/>
<rect x="40.2461" y="75.3636" width="4.46364" height="4.46364" fill="#0F0F0F"/>
<rect x="102.737" y="61.9727" width="4.46364" height="4.46364" fill="#0F0F0F"/>
<rect x="102.737" y="66.4363" width="4.46364" height="4.46364" fill="#0F0F0F"/>
<rect x="98.2729" y="66.4363" width="4.46364" height="4.46364" fill="#0F0F0F"/>
<rect x="98.2729" y="70.9" width="4.46364" height="4.46364" fill="#0F0F0F"/>
<rect x="93.8096" y="84.2908" width="4.46364" height="4.46364" fill="#0F0F0F"/>
<rect x="89.3457" y="84.2908" width="4.46364" height="4.46364" fill="#0F0F0F"/>
<rect x="89.3457" y="79.8273" width="4.46364" height="4.46364" fill="#0F0F0F"/>
<rect x="89.3457" y="88.7545" width="8.92727" height="4.46364" fill="#0F0F0F"/>
<rect x="84.8818" y="84.2908" width="4.46364" height="4.46364" fill="#2C2C2C"/>
<rect x="75.9541" y="84.2908" width="4.46364" height="4.46364" fill="#2C2C2C"/>
<rect x="67.0273" y="84.2908" width="4.46364" height="4.46364" fill="#2C2C2C"/>
<rect x="58.1006" y="84.2908" width="4.46364" height="4.46364" fill="#2C2C2C"/>
<rect x="53.6367" y="84.2908" width="4.46364" height="4.46364" fill="#0F0F0F"/>
<rect x="49.1729" y="84.2908" width="4.46364" height="4.46364" fill="#0F0F0F"/>
<rect x="44.709" y="79.8273" width="4.46364" height="4.46364" fill="#0F0F0F"/>
<rect x="80.4189" y="84.2908" width="4.46364" height="4.46364" fill="#2C2C2C"/>
<rect x="80.4189" y="79.8273" width="4.46364" height="4.46364" fill="#0F0F0F"/>
<rect x="80.4189" y="88.7545" width="4.46364" height="4.46364" fill="#0F0F0F"/>
<rect x="71.4912" y="84.2908" width="4.46364" height="4.46364" fill="#2C2C2C"/>
<rect x="71.4912" y="79.8273" width="4.46364" height="4.46364" fill="#0F0F0F"/>
<rect x="71.4912" y="88.7545" width="4.46364" height="4.46364" fill="#0F0F0F"/>
<rect x="62.5635" y="84.2908" width="4.46364" height="4.46364" fill="#2C2C2C"/>
<rect x="62.5635" y="79.8273" width="4.46364" height="4.46364" fill="#0F0F0F"/>
<rect x="62.5635" y="88.7545" width="4.46364" height="4.46364" fill="#0F0F0F"/>
<rect x="67.0273" y="79.8273" width="4.46364" height="4.46364" fill="#CDD1DC"/>
<rect x="75.9541" y="79.8273" width="4.46364" height="4.46364" fill="#CDD1DC"/>
<rect x="49.1729" y="79.8273" width="13.3909" height="4.46364" fill="#CDD1DC"/>
<rect x="67.0273" y="88.7545" width="4.46364" height="4.46364" fill="#CDD1DC"/>
<rect x="75.9541" y="88.7545" width="4.46364" height="4.46364" fill="#CDD1DC"/>
<rect x="84.8818" y="79.8273" width="4.46364" height="4.46364" fill="#CDD1DC"/>
<rect x="84.8818" y="88.7545" width="4.46364" height="4.46364" fill="#CDD1DC"/>
<rect x="93.8096" y="79.8273" width="4.46364" height="4.46364" fill="#CDD1DC"/>
<rect x="40.2451" y="75.3636" width="4.46364" height="4.46364" fill="#0F0F0F"/>
<rect x="40.2451" y="75.3636" width="58.0273" height="4.46364" fill="#0F0F0F"/>
<rect x="40.2451" y="79.8273" width="58.0273" height="4.46364" fill="#0F0F0F"/>
<rect x="44.708" y="84.291" width="13.3909" height="4.46364" fill="#0F0F0F"/>
<rect x="44.708" y="88.7545" width="44.6364" height="4.46364" fill="#0F0F0F"/>
<rect x="53.6357" y="93.2182" width="44.6364" height="4.46364" fill="#0F0F0F"/>
<rect x="49.1729" y="93.2182" width="4.46364" height="4.46364" fill="#0F0F0F"/>
<rect x="49.1729" y="97.6818" width="44.6364" height="4.46364" fill="#0F0F0F"/>
<rect x="53.6357" y="102.145" width="4.46364" height="4.46364" fill="#0F0F0F"/>
<rect x="58.1006" y="106.609" width="31.2455" height="4.46364" fill="#0F0F0F"/>
<rect x="80.417" y="44.1182" width="4.46364" height="4.46364" fill="#1B1B1B"/>
<rect x="80.417" y="39.6545" width="4.46364" height="4.46364" fill="#1B1B1B"/>
<rect x="102.735" y="44.1182" width="4.46364" height="4.46364" fill="#1B1B1B"/>
<rect x="84.8799" y="48.5818" width="17.8545" height="4.46364" fill="#1B1B1B"/>
<rect x="84.8799" y="35.1909" width="17.8545" height="4.46364" fill="#1B1B1B" fill-opacity="0.5"/>
<rect x="102.735" y="39.6545" width="4.46364" height="4.46364" fill="#1B1B1B"/>
<g filter="url(#filter0_f_505_32)">
<rect x="84.1367" y="38.9106" width="5.95152" height="5.95152" fill="#FEFDFB"/>
</g>
<rect x="84.8799" y="39.6545" width="4.46364" height="4.46364" fill="#FEFDFB" fill-opacity="0.9"/>
<g filter="url(#filter1_f_505_32)">
<rect x="84.1367" y="43.3742" width="5.95152" height="5.95152" fill="#FEFDFB"/>
</g>
<rect x="84.8799" y="44.1181" width="4.46364" height="4.46364" fill="#FEFDFB" fill-opacity="0.9"/>
<g filter="url(#filter2_f_505_32)">
<rect x="88.6006" y="38.9106" width="5.95152" height="5.95152" fill="#FEFDFB"/>
</g>
<rect x="89.3438" y="39.6545" width="4.46364" height="4.46364" fill="#FEFDFB" fill-opacity="0.9"/>
<g filter="url(#filter3_f_505_32)">
<rect x="93.0654" y="38.9106" width="5.95152" height="5.95152" fill="#FEFDFB"/>
</g>
<rect x="93.8086" y="39.6545" width="4.46364" height="4.46364" fill="#FEFDFB" fill-opacity="0.9"/>
<g filter="url(#filter4_f_505_32)">
<rect x="97.5283" y="38.9106" width="5.95152" height="5.95152" fill="#FEFDFB"/>
</g>
<rect x="98.272" y="39.6545" width="4.46364" height="4.46364" fill="#FEFDFB" fill-opacity="0.9"/>
<g filter="url(#filter5_f_505_32)">
<rect x="88.6006" y="43.3742" width="5.95152" height="5.95152" fill="#FEFDFB"/>
</g>
<rect x="89.3438" y="44.1182" width="4.46364" height="4.46364" fill="#FEFDFB" fill-opacity="0.9"/>
<g filter="url(#filter6_f_505_32)">
<rect x="93.0654" y="43.3742" width="5.95152" height="5.95152" fill="#FEFDFB"/>
</g>
<rect x="93.8086" y="44.1182" width="4.46364" height="4.46364" fill="#FEFDFB" fill-opacity="0.9"/>
<g filter="url(#filter7_f_505_32)">
<rect x="97.5283" y="43.3742" width="5.95152" height="5.95152" fill="#FEFDFB"/>
</g>
<rect x="98.272" y="44.1182" width="4.46364" height="4.46364" fill="#FEFDFB" fill-opacity="0.9"/>
<rect x="44.71" y="44.1182" width="4.46364" height="4.46364" fill="#1B1B1B"/>
<rect x="44.71" y="39.6545" width="4.46364" height="4.46364" fill="#1B1B1B"/>
<rect x="71.4912" y="44.1182" width="4.46364" height="4.46364" fill="#1B1B1B"/>
<rect x="49.1729" y="48.5818" width="22.3182" height="4.46364" fill="#1B1B1B"/>
<rect x="49.1729" y="35.1909" width="22.3182" height="4.46364" fill="#1B1B1B" fill-opacity="0.5"/>
<rect x="71.4912" y="39.6545" width="4.46364" height="4.46364" fill="#1B1B1B"/>
<g filter="url(#filter8_f_505_32)">
<rect x="48.4297" y="38.9106" width="5.95152" height="5.95152" fill="#FEFDFB"/>
</g>
<rect x="49.1748" y="39.6545" width="4.46364" height="4.46364" fill="#FEFDFB" fill-opacity="0.9"/>
<g filter="url(#filter9_f_505_32)">
<rect x="48.4297" y="43.3741" width="5.95152" height="5.95152" fill="#FEFDFB"/>
</g>
<rect x="49.1748" y="44.1182" width="4.46364" height="4.46364" fill="#FEFDFB" fill-opacity="0.9"/>
<g filter="url(#filter10_f_505_32)">
<rect x="52.8936" y="38.9106" width="5.95152" height="5.95152" fill="#FEFDFB"/>
</g>
<rect x="53.6367" y="39.6545" width="4.46364" height="4.46364" fill="#FEFDFB" fill-opacity="0.9"/>
<g filter="url(#filter11_f_505_32)">
<rect x="57.3574" y="38.9106" width="5.95152" height="5.95152" fill="#FEFDFB"/>
</g>
<rect x="58.1016" y="39.6545" width="4.46364" height="4.46364" fill="#FEFDFB" fill-opacity="0.9"/>
<g filter="url(#filter12_f_505_32)">
<rect x="61.8223" y="38.9106" width="5.95152" height="5.95152" fill="#FEFDFB"/>
</g>
<rect x="62.5654" y="39.6545" width="4.46364" height="4.46364" fill="#FEFDFB" fill-opacity="0.9"/>
<g filter="url(#filter13_f_505_32)">
<rect x="66.2842" y="38.9106" width="5.95152" height="5.95152" fill="#FEFDFB"/>
</g>
<rect x="67.0273" y="39.6545" width="4.46364" height="4.46364" fill="#FEFDFB" fill-opacity="0.9"/>
<g filter="url(#filter14_f_505_32)">
<rect x="52.8936" y="43.3742" width="5.95152" height="5.95152" fill="#FEFDFB"/>
</g>
<rect x="53.6367" y="44.1181" width="4.46364" height="4.46364" fill="#FEFDFB" fill-opacity="0.9"/>
<g filter="url(#filter15_f_505_32)">
<rect x="57.3574" y="43.3741" width="5.95152" height="5.95152" fill="#FEFDFB"/>
</g>
<rect x="58.1016" y="44.1182" width="4.46364" height="4.46364" fill="#FEFDFB" fill-opacity="0.9"/>
<g filter="url(#filter16_f_505_32)">
<rect x="61.8223" y="43.3742" width="5.95152" height="5.95152" fill="#FEFDFB"/>
</g>
<rect x="62.5654" y="44.1181" width="4.46364" height="4.46364" fill="#FEFDFB" fill-opacity="0.9"/>
<g filter="url(#filter17_f_505_32)">
<rect x="66.2842" y="43.3742" width="5.95152" height="5.95152" fill="#FEFDFB"/>
</g>
<rect x="67.0273" y="44.1181" width="4.46364" height="4.46364" fill="#FEFDFB" fill-opacity="0.9"/>
<rect x="26.8555" y="12.8727" width="4.46364" height="4.46364" fill="#0A3656"/>
<rect x="31.3184" y="12.8727" width="4.46364" height="4.46364" fill="#0A3656"/>
<rect x="35.7822" y="12.8727" width="4.46364" height="4.46364" fill="#0A3656"/>
<rect x="40.2461" y="12.8727" width="4.46364" height="4.46364" fill="#0A3656"/>
<rect x="44.709" y="12.8727" width="4.46364" height="4.46364" fill="#0A3656"/>
<rect x="49.1729" y="12.8727" width="4.46364" height="4.46364" fill="#0A3656"/>
<rect x="53.6367" y="12.8727" width="4.46364" height="4.46364" fill="#0A3656"/>
<rect x="58.1006" y="12.8727" width="4.46364" height="4.46364" fill="#0A3656"/>
<rect x="62.5635" y="12.8727" width="4.46364" height="4.46364" fill="#0A3656"/>
<rect x="67.0273" y="12.8727" width="4.46364" height="4.46364" fill="#0A3656"/>
<rect x="71.4912" y="12.8727" width="13.3909" height="4.46364" fill="#0A3656"/>
<rect x="84.8818" y="12.8727" width="4.46364" height="4.46364" fill="#0A3656"/>
<rect x="89.3457" y="17.3364" width="4.46364" height="4.46364" fill="#0A3656"/>
<rect x="80.4189" y="21.8" width="4.46364" height="4.46364" fill="#0A3656"/>
<rect x="98.2729" y="21.8" width="4.46364" height="4.46364" fill="#0A3656"/>
<rect x="93.8096" y="21.8" width="4.46364" height="4.46364" fill="#0A3656"/>
<rect x="89.3457" y="21.8" width="4.46364" height="4.46364" fill="#0A3656"/>
<rect x="84.8818" y="21.8" width="4.46364" height="4.46364" fill="#0A3656"/>
<rect x="93.8096" y="17.3364" width="4.46364" height="4.46364" fill="#0B1C29"/>
<rect x="89.3457" y="12.8727" width="4.46364" height="4.46364" fill="#0B1C29"/>
<rect x="93.8096" y="12.8727" width="4.46364" height="4.46364" fill="#0B1C29"/>
<rect x="40.2461" y="17.3364" width="13.3909" height="4.46364" fill="#0A3656"/>
<rect x="53.6367" y="17.3364" width="4.46364" height="4.46364" fill="#B1B1BA"/>
<rect x="58.1006" y="17.3364" width="4.46364" height="4.46364" fill="#EAEAE9"/>
<rect x="62.5635" y="17.3364" width="4.46364" height="4.46364" fill="#B1B1BA"/>
<rect x="67.0273" y="17.3364" width="4.46364" height="4.46364" fill="#B1B1BA"/>
<rect x="71.4912" y="17.3364" width="4.46364" height="4.46364" fill="#B1B1BA"/>
<rect x="75.9541" y="21.8" width="4.46364" height="4.46364" fill="#B1B1BA"/>
<rect x="80.4189" y="21.8" width="4.46364" height="4.46364" fill="#B1B1BA"/>
<rect x="80.4189" y="17.3364" width="4.46364" height="4.46364" fill="#B1B1BA"/>
<rect x="84.8818" y="17.3364" width="4.46364" height="4.46364" fill="#B1B1BA"/>
<rect x="84.8818" y="21.8" width="4.46364" height="4.46364" fill="#B1B1BA"/>
<rect x="67.0273" y="21.8" width="4.46364" height="4.46364" fill="#656970"/>
<rect x="71.4912" y="21.8" width="4.46364" height="4.46364" fill="#656970"/>
<rect x="75.9541" y="17.3364" width="4.46364" height="4.46364" fill="#656970"/>
<rect x="62.5635" y="21.8" width="4.46364" height="4.46364" fill="#B1B1BA"/>
<rect x="58.1006" y="21.8" width="4.46364" height="4.46364" fill="#EAEAE9"/>
<rect x="53.6367" y="21.8" width="4.46364" height="4.46364" fill="#B1B1BA"/>
<rect x="35.7822" y="17.3364" width="4.46364" height="4.46364" fill="#0A3656"/>
<rect x="31.3184" y="17.3364" width="4.46364" height="4.46364" fill="#0B1C29"/>
<rect x="26.8555" y="12.8727" width="4.46364" height="4.46364" fill="#0B1C29"/>
<rect x="26.8555" y="17.3364" width="4.46364" height="4.46364" fill="#0B1C29"/>
<rect x="22.3906" y="17.3364" width="4.46364" height="4.46364" fill="#0B1C29"/>
<rect x="17.9277" y="17.3364" width="4.46364" height="4.46364" fill="#0B1C29"/>
<rect x="13.4648" y="12.8727" width="4.46364" height="4.46364" fill="#0B1C29"/>
<rect x="13.4648" y="8.40906" width="4.46364" height="4.46364" fill="#0B1C29"/>
<rect x="9" y="3.94537" width="4.46364" height="4.46364" fill="#0B1C29"/>
<rect x="31.3184" y="21.8" width="4.46364" height="4.46364" fill="#0B1C29"/>
<rect x="35.7822" y="21.8" width="4.46364" height="4.46364" fill="#0B1C29"/>
<rect x="35.7822" y="26.2636" width="4.46364" height="4.46364" fill="#0B1C29"/>
<rect x="40.2461" y="21.8" width="13.3909" height="4.46364" fill="#0B1C29"/>
<rect x="40.2461" y="26.2636" width="4.46364" height="4.46364" fill="#0B1C29"/>
<rect x="44.709" y="26.2636" width="4.46364" height="4.46364" fill="#2F3840"/>
<rect x="40.2461" y="26.2636" width="4.46364" height="4.46364" fill="#2F3840"/>
<rect x="35.7822" y="26.2636" width="4.46364" height="4.46364" fill="#2F3840"/>
<rect x="49.1729" y="26.2636" width="4.46364" height="4.46364" fill="#2F3840"/>
<rect x="53.6367" y="26.2636" width="4.46364" height="4.46364" fill="#2F3840"/>
<rect x="58.1006" y="26.2636" width="4.46364" height="4.46364" fill="#2F3840"/>
<rect x="62.5635" y="26.2636" width="4.46364" height="4.46364" fill="#2F3840"/>
<rect x="67.0273" y="26.2636" width="4.46364" height="4.46364" fill="#2F3840"/>
<rect x="71.4912" y="26.2636" width="4.46364" height="4.46364" fill="#2F3840"/>
<rect x="75.9541" y="26.2636" width="4.46364" height="4.46364" fill="#2F3840"/>
<rect x="80.4189" y="26.2636" width="4.46364" height="4.46364" fill="#2F3840"/>
<rect x="84.8818" y="26.2636" width="4.46364" height="4.46364" fill="#2F3840"/>
<rect x="89.3457" y="26.2636" width="4.46364" height="4.46364" fill="#2F3840"/>
<rect x="93.8096" y="26.2636" width="4.46364" height="4.46364" fill="#2F3840"/>
<rect x="98.2729" y="26.2636" width="4.46364" height="4.46364" fill="#2F3840"/>
<rect x="93.8096" y="12.8727" width="4.46364" height="4.46364" fill="#2F3840"/>
<rect x="26.8555" y="21.8" width="4.46364" height="4.46364" fill="#0B1C29"/>
<rect x="22.3906" y="21.8" width="4.46364" height="4.46364" fill="#0B1C29"/>
<rect x="17.9277" y="26.2636" width="4.46364" height="4.46364" fill="#0B1C29"/>
<rect x="13.4648" y="30.7272" width="4.46364" height="4.46364" fill="#0B1C29"/>
<rect x="9" y="35.1909" width="4.46364" height="4.46364" fill="#0B1C29"/>
</g>
</g>
<defs>
<filter id="filter0_f_505_32" x="80.417" y="35.1909" width="13.3906" height="13.3909" filterUnits="userSpaceOnUse" color-interpolation-filters="sRGB">
<feFlood flood-opacity="0" result="BackgroundImageFix"/>
<feBlend mode="normal" in="SourceGraphic" in2="BackgroundImageFix" result="shape"/>
<feGaussianBlur stdDeviation="1.85985" result="effect1_foregroundBlur_505_32"/>
</filter>
<filter id="filter1_f_505_32" x="80.417" y="39.6545" width="13.3906" height="13.3909" filterUnits="userSpaceOnUse" color-interpolation-filters="sRGB">
<feFlood flood-opacity="0" result="BackgroundImageFix"/>
<feBlend mode="normal" in="SourceGraphic" in2="BackgroundImageFix" result="shape"/>
<feGaussianBlur stdDeviation="1.85985" result="effect1_foregroundBlur_505_32"/>
</filter>
<filter id="filter2_f_505_32" x="84.8809" y="35.1909" width="13.3906" height="13.3909" filterUnits="userSpaceOnUse" color-interpolation-filters="sRGB">
<feFlood flood-opacity="0" result="BackgroundImageFix"/>
<feBlend mode="normal" in="SourceGraphic" in2="BackgroundImageFix" result="shape"/>
<feGaussianBlur stdDeviation="1.85985" result="effect1_foregroundBlur_505_32"/>
</filter>
<filter id="filter3_f_505_32" x="89.3457" y="35.1909" width="13.3911" height="13.3909" filterUnits="userSpaceOnUse" color-interpolation-filters="sRGB">
<feFlood flood-opacity="0" result="BackgroundImageFix"/>
<feBlend mode="normal" in="SourceGraphic" in2="BackgroundImageFix" result="shape"/>
<feGaussianBlur stdDeviation="1.85985" result="effect1_foregroundBlur_505_32"/>
</filter>
<filter id="filter4_f_505_32" x="93.8086" y="35.1909" width="13.3911" height="13.3909" filterUnits="userSpaceOnUse" color-interpolation-filters="sRGB">
<feFlood flood-opacity="0" result="BackgroundImageFix"/>
<feBlend mode="normal" in="SourceGraphic" in2="BackgroundImageFix" result="shape"/>
<feGaussianBlur stdDeviation="1.85985" result="effect1_foregroundBlur_505_32"/>
</filter>
<filter id="filter5_f_505_32" x="84.8809" y="39.6545" width="13.3906" height="13.3909" filterUnits="userSpaceOnUse" color-interpolation-filters="sRGB">
<feFlood flood-opacity="0" result="BackgroundImageFix"/>
<feBlend mode="normal" in="SourceGraphic" in2="BackgroundImageFix" result="shape"/>
<feGaussianBlur stdDeviation="1.85985" result="effect1_foregroundBlur_505_32"/>
</filter>
<filter id="filter6_f_505_32" x="89.3457" y="39.6545" width="13.3911" height="13.3909" filterUnits="userSpaceOnUse" color-interpolation-filters="sRGB">
<feFlood flood-opacity="0" result="BackgroundImageFix"/>
<feBlend mode="normal" in="SourceGraphic" in2="BackgroundImageFix" result="shape"/>
<feGaussianBlur stdDeviation="1.85985" result="effect1_foregroundBlur_505_32"/>
</filter>
<filter id="filter7_f_505_32" x="93.8086" y="39.6545" width="13.3911" height="13.3909" filterUnits="userSpaceOnUse" color-interpolation-filters="sRGB">
<feFlood flood-opacity="0" result="BackgroundImageFix"/>
<feBlend mode="normal" in="SourceGraphic" in2="BackgroundImageFix" result="shape"/>
<feGaussianBlur stdDeviation="1.85985" result="effect1_foregroundBlur_505_32"/>
</filter>
<filter id="filter8_f_505_32" x="44.71" y="35.1909" width="13.3906" height="13.3909" filterUnits="userSpaceOnUse" color-interpolation-filters="sRGB">
<feFlood flood-opacity="0" result="BackgroundImageFix"/>
<feBlend mode="normal" in="SourceGraphic" in2="BackgroundImageFix" result="shape"/>
<feGaussianBlur stdDeviation="1.85985" result="effect1_foregroundBlur_505_32"/>
</filter>
<filter id="filter9_f_505_32" x="44.71" y="39.6544" width="13.3906" height="13.3909" filterUnits="userSpaceOnUse" color-interpolation-filters="sRGB">
<feFlood flood-opacity="0" result="BackgroundImageFix"/>
<feBlend mode="normal" in="SourceGraphic" in2="BackgroundImageFix" result="shape"/>
<feGaussianBlur stdDeviation="1.85985" result="effect1_foregroundBlur_505_32"/>
</filter>
<filter id="filter10_f_505_32" x="49.1739" y="35.1909" width="13.3906" height="13.3909" filterUnits="userSpaceOnUse" color-interpolation-filters="sRGB">
<feFlood flood-opacity="0" result="BackgroundImageFix"/>
<feBlend mode="normal" in="SourceGraphic" in2="BackgroundImageFix" result="shape"/>
<feGaussianBlur stdDeviation="1.85985" result="effect1_foregroundBlur_505_32"/>
</filter>
<filter id="filter11_f_505_32" x="53.6377" y="35.1909" width="13.3906" height="13.3909" filterUnits="userSpaceOnUse" color-interpolation-filters="sRGB">
<feFlood flood-opacity="0" result="BackgroundImageFix"/>
<feBlend mode="normal" in="SourceGraphic" in2="BackgroundImageFix" result="shape"/>
<feGaussianBlur stdDeviation="1.85985" result="effect1_foregroundBlur_505_32"/>
</filter>
<filter id="filter12_f_505_32" x="58.1026" y="35.1909" width="13.3906" height="13.3909" filterUnits="userSpaceOnUse" color-interpolation-filters="sRGB">
<feFlood flood-opacity="0" result="BackgroundImageFix"/>
<feBlend mode="normal" in="SourceGraphic" in2="BackgroundImageFix" result="shape"/>
<feGaussianBlur stdDeviation="1.85985" result="effect1_foregroundBlur_505_32"/>
</filter>
<filter id="filter13_f_505_32" x="62.5645" y="35.1909" width="13.3906" height="13.3909" filterUnits="userSpaceOnUse" color-interpolation-filters="sRGB">
<feFlood flood-opacity="0" result="BackgroundImageFix"/>
<feBlend mode="normal" in="SourceGraphic" in2="BackgroundImageFix" result="shape"/>
<feGaussianBlur stdDeviation="1.85985" result="effect1_foregroundBlur_505_32"/>
</filter>
<filter id="filter14_f_505_32" x="49.1739" y="39.6545" width="13.3906" height="13.3909" filterUnits="userSpaceOnUse" color-interpolation-filters="sRGB">
<feFlood flood-opacity="0" result="BackgroundImageFix"/>
<feBlend mode="normal" in="SourceGraphic" in2="BackgroundImageFix" result="shape"/>
<feGaussianBlur stdDeviation="1.85985" result="effect1_foregroundBlur_505_32"/>
</filter>
<filter id="filter15_f_505_32" x="53.6377" y="39.6544" width="13.3906" height="13.3909" filterUnits="userSpaceOnUse" color-interpolation-filters="sRGB">
<feFlood flood-opacity="0" result="BackgroundImageFix"/>
<feBlend mode="normal" in="SourceGraphic" in2="BackgroundImageFix" result="shape"/>
<feGaussianBlur stdDeviation="1.85985" result="effect1_foregroundBlur_505_32"/>
</filter>
<filter id="filter16_f_505_32" x="58.1026" y="39.6545" width="13.3906" height="13.3909" filterUnits="userSpaceOnUse" color-interpolation-filters="sRGB">
<feFlood flood-opacity="0" result="BackgroundImageFix"/>
<feBlend mode="normal" in="SourceGraphic" in2="BackgroundImageFix" result="shape"/>
<feGaussianBlur stdDeviation="1.85985" result="effect1_foregroundBlur_505_32"/>
</filter>
<filter id="filter17_f_505_32" x="62.5645" y="39.6545" width="13.3906" height="13.3909" filterUnits="userSpaceOnUse" color-interpolation-filters="sRGB">
<feFlood flood-opacity="0" result="BackgroundImageFix"/>
<feBlend mode="normal" in="SourceGraphic" in2="BackgroundImageFix" result="shape"/>
<feGaussianBlur stdDeviation="1.85985" result="effect1_foregroundBlur_505_32"/>
</filter>
<clipPath id="clip0_505_32">
<rect width="120" height="120" rx="3" fill="white"/>
</clipPath>
<clipPath id="clip1_505_32">
<rect width="120" height="120" fill="white"/>
</clipPath>
</defs>
</svg>
